<?xml version="1.0" standalone="no"?>
<!DOCTYPE svg PUBLIC "-//W3C//DTD SVG 20010904//EN"
 "http://www.w3.org/TR/2001/REC-SVG-20010904/DTD/svg10.dtd">
<svg version="1.0" xmlns="http://www.w3.org/2000/svg"
 width="300.000000pt" height="211.000000pt" viewBox="0 0 300.000000 211.000000"
 preserveAspectRatio="xMidYMid meet">
<metadata>
Created by potrace 1.10, written by Peter Selinger 2001-2011
</metadata>
<g transform="translate(0.000000,211.000000) scale(0.100000,-0.100000)"
fill="#000000" stroke="none">
<path d="M1002 2098 c-64 -14 -117 -71 -131 -140 -12 -55 -8 -78 24 -151 9
-22 15 -57 13 -80 -3 -37 -7 -44 -40 -60 -21 -10 -38 -22 -38 -26 0 -21 53
-54 93 -58 38 -5 47 -2 74 26 23 23 35 47 43 89 6 31 20 77 31 101 l20 43 23
-23 c13 -13 34 -31 47 -40 l22 -15 -25 -55 c-22 -47 -25 -70 -26 -158 0 -90 2
-103 19 -114 14 -9 19 -23 19 -55 0 -43 19 -73 62 -98 8 -5 25 -28 37 -51 29
-59 83 -110 131 -124 22 -7 40 -16 40 -21 0 -8 -35 -60 -61 -92 -4 -4 -12 17
-19 47 -17 84 -19 85 -235 128 -82 17 -175 36 -205 44 -30 8 -101 23 -156 34
-56 11 -132 29 -169 40 -37 12 -79 21 -93 21 -36 0 -417 -177 -453 -211 -50
-47 -30 -96 49 -120 34 -10 41 -17 45 -43 4 -24 0 -34 -16 -46 -40 -28 -57
-50 -57 -75 0 -30 30 -47 113 -65 31 -7 57 -17 57 -21 0 -4 -15 -20 -33 -36
-25 -22 -55 -34 -114 -47 -67 -14 -82 -21 -87 -39 -6 -24 19 -69 58 -106 35
-33 34 -68 -1 -82 -86 -32 -43 -100 145 -232 97 -69 264 -173 289 -181 31 -10
200 11 309 38 279 69 501 127 520 135 17 8 26 5 44 -14 13 -14 37 -29 54 -34
60 -19 213 -32 441 -38 259 -7 317 2 387 58 l37 29 65 -16 c56 -14 68 -21 85
-50 25 -42 106 -84 175 -91 43 -4 57 -1 89 21 25 17 46 24 60 21 61 -16 135
91 193 275 53 172 51 260 -8 311 -28 25 -40 29 -80 26 -26 -2 -52 1 -58 7 -16
16 -120 12 -156 -7 -48 -25 -113 -96 -126 -138 -9 -32 -16 -39 -37 -39 -32 0
-110 35 -125 56 -8 10 -44 19 -114 26 -56 6 -102 15 -102 20 0 4 51 8 113 8
61 0 117 4 123 8 6 4 48 79 92 168 45 88 100 181 122 207 l41 46 -11 102 c-5
55 -10 123 -10 149 0 54 -10 66 -39 50 -23 -12 -104 -115 -122 -153 -11 -24
-14 -25 -88 -20 -50 3 -89 0 -115 -9 -37 -12 -40 -16 -57 -83 -10 -38 -28 -91
-40 -117 -18 -39 -27 -48 -48 -48 -48 0 -123 34 -176 81 -29 26 -65 49 -79 53
-14 3 -26 10 -26 14 0 4 28 20 62 36 45 21 84 51 142 110 93 96 116 130 116
174 0 18 7 44 16 57 11 17 14 36 10 62 -3 21 -7 76 -9 123 -1 47 -5 91 -7 98
-3 8 10 19 35 27 22 8 41 15 43 15 1 0 2 -10 2 -21 0 -47 25 -99 65 -139 34
-33 52 -43 87 -47 29 -3 50 0 63 10 20 15 19 16 -8 41 -33 31 -34 53 -2 144
23 65 24 78 15 143 -12 85 -37 144 -74 179 -25 22 -36 25 -106 25 -90 0 -113
-13 -132 -78 -6 -21 -19 -42 -27 -45 -9 -2 -28 -16 -43 -30 l-27 -25 -50 46
c-36 34 -58 47 -80 47 -25 0 -80 21 -131 51 -42 25 -69 30 -122 25 -105 -10
-284 -70 -348 -116 l-30 -21 -10 25 c-6 16 -17 26 -30 26 -13 0 -20 7 -20 18
0 24 -48 69 -80 76 -58 11 -108 13 -148 4z m118 -46 c35 -36 49 -97 28 -119
-14 -13 -18 -12 -41 11 -47 47 -117 26 -133 -41 -5 -19 0 -48 15 -88 32 -85
36 -117 16 -154 -17 -34 -49 -51 -96 -51 -31 0 -54 30 -30 38 55 18 66 95 29
197 -15 43 -19 71 -14 97 21 114 156 180 226 110z m70 -10 c25 -31 25 -44 0
-67 -19 -18 -20 -17 -20 6 0 13 -9 39 -20 57 -25 40 -25 41 0 35 11 -3 29 -17
40 -31z m1161 15 c29 -19 78 -88 79 -108 0 -4 -15 8 -34 27 -28 28 -41 34 -77
34 -41 0 -62 -9 -121 -52 -14 -10 -20 -10 -33 3 -14 14 -14 19 0 52 28 67 120
89 186 44z m-583 -6 c14 -8 -38 -34 -123 -61 -107 -35 -210 -92 -276 -154 -81
-77 -178 -150 -187 -142 -12 13 67 154 119 210 67 74 158 119 290 145 58 12
161 13 177 2z m62 -47 c0 -22 -241 -257 -308 -300 -82 -53 -260 -126 -312
-127 l-45 -2 0 35 c0 30 6 39 49 70 27 19 85 68 130 108 84 75 144 110 326
186 113 48 160 57 160 30z m9 -132 c-27 -98 -157 -243 -285 -318 -89 -52 -237
-105 -310 -111 -69 -6 -72 -5 -89 20 -13 20 -15 33 -8 54 9 25 16 29 65 34 87
10 186 45 278 98 102 61 276 216 322 288 l33 52 3 -36 c2 -21 -2 -57 -9 -81z
m94 104 c49 -21 101 -77 156 -172 34 -56 54 -104 59 -137 9 -58 6 -87 -10 -87
-16 0 -69 39 -126 94 -82 78 -159 246 -139 301 8 19 19 19 60 1z m463 -30 c41
-40 44 -47 44 -95 0 -30 -7 -62 -16 -76 -9 -13 -17 -34 -19 -47 -3 -13 -7 -35
-11 -50 -9 -39 3 -76 26 -83 30 -10 24 -25 -11 -25 -86 0 -114 72 -70 183 27
68 -7 126 -80 136 -38 5 -44 9 -44 31 0 32 56 70 103 70 28 0 43 -9 78 -44z
m-1131 10 c16 -24 15 -27 -32 -94 l-49 -70 -27 16 c-43 26 -36 63 21 122 27
28 54 50 60 50 6 0 19 -11 27 -24z m-185 -16 c26 -14 41 -45 34 -65 -6 -14 -9
-14 -26 4 -22 25 -28 25 -53 7 -15 -11 -17 -22 -12 -72 4 -44 3 -54 -5 -41 -5
11 -12 46 -15 78 -5 48 -2 63 12 79 20 22 37 25 65 10z m1071 -3 c32 -24 59
-81 59 -124 0 -39 -2 -43 -25 -44 -14 -1 -29 -2 -35 -3 -5 -1 -27 28 -49 64
l-40 65 30 28 c33 30 37 31 60 14z m161 -99 c21 -28 22 -64 3 -98 -8 -14 -15
-45 -15 -70 l-1 -45 -16 29 c-8 16 -15 50 -15 75 1 25 -5 52 -12 61 -7 8 -18
30 -25 49 l-11 34 37 -6 c22 -4 45 -16 55 -29z m-1232 12 c0 -5 -5 -10 -10
-10 -6 0 -15 -10 -20 -22 -9 -23 -9 -23 -9 3 -1 14 2 29 6 32 10 11 33 8 33
-3z m810 -26 c0 -45 119 -214 151 -214 4 0 30 -18 58 -40 48 -38 51 -43 51
-85 0 -57 -12 -58 -90 -4 -66 45 -143 143 -167 211 -19 57 -30 163 -15 154 7
-4 12 -14 12 -22z m15 -212 c18 -32 57 -80 86 -107 30 -28 55 -62 61 -81 5
-18 16 -40 24 -49 20 -20 12 -55 -27 -117 -43 -67 -100 -115 -186 -156 l-75
-35 -126 6 c-224 11 -320 61 -388 202 -37 75 -42 105 -19 105 8 0 29 13 47 29
18 15 58 36 88 46 177 57 336 164 411 279 l43 66 13 -65 c8 -36 29 -91 48
-123z m193 -174 c14 -14 16 -44 2 -53 -8 -5 -40 43 -40 60 0 10 26 5 38 -7z
m-880 -74 c17 -60 16 -70 -7 -50 -23 21 -34 60 -25 88 8 25 18 14 32 -38z m56
41 c-25 -19 -54 -19 -54 0 0 11 11 15 37 15 35 0 36 -1 17 -15z m866 -21 c0
-20 -29 -88 -35 -82 -9 8 18 108 27 102 4 -3 8 -12 8 -20z m458 -125 c1 -23 6
-69 12 -102 5 -34 8 -63 6 -65 -3 -2 -15 3 -28 11 -12 8 -44 22 -70 32 -27 10
-48 21 -48 24 0 23 107 154 120 146 4 -2 7 -23 8 -46z m-1916 -19 c91 -21 259
-58 374 -81 115 -23 219 -45 231 -50 35 -13 63 -67 63 -119 0 -47 -26 -116
-52 -137 -20 -17 -182 -88 -410 -180 l-187 -76 -83 33 c-80 31 -159 57 -410
135 -65 20 -118 40 -118 44 0 5 9 19 20 32 13 15 18 18 14 7 -8 -23 19 -35
114 -53 43 -8 150 -38 238 -65 201 -64 242 -69 314 -41 30 12 118 45 195 73
175 63 299 121 319 150 10 14 16 44 16 77 0 67 -18 91 -69 91 -36 0 -231 -82
-446 -187 -87 -43 -116 -52 -140 -47 -32 6 -131 34 -230 64 -33 10 -129 37
-213 60 -83 24 -160 48 -169 55 -16 12 -16 14 1 39 24 38 387 214 442 215 12
1 96 -17 186 -39z m1853 -139 c38 -17 72 -37 76 -43 5 -7 -12 -33 -39 -63 -50
-54 -138 -206 -175 -298 -19 -50 -25 -56 -57 -61 -53 -9 -170 -7 -170 3 0 4
27 25 60 45 82 51 120 99 120 153 0 33 -5 46 -26 62 -34 27 -47 26 -113 -4
-30 -14 -56 -24 -58 -21 -2 2 8 28 23 58 15 29 37 82 49 118 28 84 43 92 155
87 69 -3 98 -10 155 -36z m-728 -75 c33 -21 46 -46 109 -214 24 -63 33 -159
14 -147 -5 3 -10 19 -10 35 0 33 -67 162 -122 236 -48 64 -73 75 -179 77 -75
2 -89 -1 -131 -25 -36 -22 -50 -38 -64 -74 -27 -70 -23 -133 12 -190 34 -58
74 -151 74 -174 0 -39 62 -52 143 -29 47 13 61 3 28 -20 -81 -54 -83 -80 -2
-30 35 22 55 29 62 22 7 -7 5 -14 -6 -23 -16 -13 -21 -40 -6 -40 5 0 15 10 24
22 14 22 16 22 33 6 28 -25 105 -58 137 -58 45 0 81 25 137 95 l52 65 87 -4
c47 -3 90 -5 96 -5 5 -1 -16 -19 -48 -42 -79 -56 -97 -94 -97 -204 0 -54 6
-99 15 -122 9 -20 12 -40 8 -44 -15 -13 -114 -29 -186 -29 -100 0 -452 28
-513 40 -32 7 -60 20 -75 36 -20 22 -23 34 -21 87 3 52 -2 71 -27 122 -17 32
-29 60 -28 61 1 1 17 9 34 18 36 18 63 61 63 101 0 14 -7 61 -15 103 -13 61
-22 82 -44 102 l-28 25 13 61 c16 81 35 114 86 159 l43 36 150 -6 c130 -6 154
-10 182 -29z m-519 12 c14 -14 16 -67 3 -101 -11 -27 -161 -99 -346 -165 -60
-21 -130 -49 -154 -60 -25 -12 -46 -21 -47 -19 -2 2 1 19 6 39 7 24 7 45 0 63
-5 14 -10 28 -10 31 0 3 73 41 163 84 269 131 354 159 385 128z m653 -85 c29
-25 61 -44 83 -48 40 -8 42 -11 21 -39 -8 -11 -15 -40 -15 -64 0 -37 -5 -49
-32 -74 l-32 -30 -12 59 c-6 32 -30 101 -53 153 -22 52 -41 99 -41 104 0 10
19 -4 81 -61z m-224 22 c22 -9 51 -34 69 -58 34 -45 114 -196 114 -215 0 -17
-70 -82 -110 -101 -19 -10 -75 -31 -124 -46 -97 -31 -115 -29 -127 19 -4 15
-28 69 -54 121 -58 115 -62 165 -21 220 15 19 44 44 64 55 46 24 137 26 189 5z
m-1511 -24 c16 -5 74 -21 129 -36 55 -15 153 -43 218 -61 65 -19 132 -34 148
-34 35 0 47 -33 33 -89 -12 -49 -41 -51 -158 -13 -155 51 -258 80 -345 96 -46
8 -86 18 -89 20 -2 3 1 19 8 36 7 16 10 43 8 60 -5 33 1 36 48 21z m2108 -67
c43 -42 6 -112 -94 -179 -39 -26 -82 -64 -94 -84 -40 -62 -126 -165 -154 -183
-15 -10 -37 -18 -50 -18 -44 0 -222 104 -205 120 4 4 25 13 46 20 20 6 62 32
93 57 30 25 57 43 60 40 3 -2 -1 -16 -7 -31 -9 -19 -9 -30 -1 -38 8 -8 16 2
32 35 14 30 39 59 70 81 46 33 48 36 43 78 -5 48 24 108 52 108 17 0 21 -35 5
-45 -5 -3 -10 -10 -10 -15 0 -5 37 9 82 30 90 44 109 47 132 24z m-1007 -99
c49 -10 69 -44 83 -140 15 -103 9 -114 -76 -164 -148 -86 -183 -107 -244 -151
-36 -26 -74 -50 -86 -54 -12 -3 -66 8 -130 28 -184 57 -322 93 -484 126 -85
18 -159 36 -165 42 -7 6 -4 14 7 22 14 11 31 10 90 -5 40 -11 141 -33 223 -50
83 -16 191 -43 240 -58 50 -16 120 -34 157 -42 l67 -13 78 49 c43 26 126 77
185 112 120 72 125 81 110 178 -6 41 -11 51 -29 53 -25 4 -100 -40 -268 -154
l-110 -75 -65 6 c-36 3 -101 15 -145 25 -262 63 -389 91 -460 101 -44 6 -84
15 -90 20 -6 6 4 23 27 46 l37 36 75 -22 c42 -12 133 -45 203 -72 71 -28 135
-53 145 -56 21 -6 254 82 428 163 74 34 142 61 150 59 8 -2 30 -6 47 -10z m28
-156 l0 -64 -95 -57 c-52 -32 -124 -77 -160 -100 -36 -24 -68 -44 -72 -46 -3
-2 -6 16 -6 40 1 24 -2 52 -6 64 -5 18 9 31 106 96 156 104 211 137 223 134 6
-1 10 -32 10 -67z m1477 24 c27 -24 22 -43 -10 -43 -42 0 -103 -49 -133 -106
-51 -94 -92 -241 -93 -334 -1 -47 3 -94 8 -104 8 -17 6 -18 -20 -12 -37 9
-102 54 -116 79 -8 16 -1 39 35 116 38 80 48 111 56 188 13 124 34 160 121
212 44 26 125 29 152 4z m92 11 c22 -8 20 -24 -2 -24 -10 0 -23 -5 -29 -11 -8
-8 -14 -6 -22 9 -6 10 -7 22 -4 26 8 8 37 8 57 0z m-2698 -49 c32 -8 62 -19
67 -24 16 -16 -16 -66 -43 -69 -32 -5 -50 -20 -50 -43 0 -22 24 -36 82 -49 24
-5 106 -23 183 -40 154 -33 352 -84 360 -92 3 -3 -41 -13 -97 -23 -57 -10
-131 -26 -166 -37 l-63 -19 -122 89 c-67 49 -152 110 -189 136 -79 56 -153
135 -139 149 5 5 33 15 63 22 29 8 54 14 55 14 1 1 28 -6 59 -14z m2749 -12
c24 -25 26 -34 22 -86 -3 -32 -10 -64 -16 -71 -7 -8 -11 -18 -10 -22 1 -5 0
-16 -3 -24 -3 -8 -13 -42 -23 -75 -39 -133 -106 -235 -156 -235 l-27 0 43 113
c51 136 76 239 79 331 2 54 6 72 21 82 27 20 41 17 70 -13z m-2567 -23 c30 -5
113 -25 185 -45 158 -41 354 -77 383 -69 24 6 34 -16 34 -78 0 -48 -1 -48
-160 -2 -69 19 -170 44 -225 55 -55 11 -127 28 -160 39 -33 10 -86 22 -117 26
-60 7 -68 13 -43 34 8 7 15 23 15 37 0 19 4 23 18 19 9 -3 41 -10 70 -16z
m2462 -48 c0 -85 -102 -418 -139 -455 -5 -5 -26 -15 -47 -22 -34 -12 -41 -11
-58 3 -30 27 -18 170 24 292 56 163 94 222 156 239 47 13 64 -3 64 -57z m-426
-29 c44 -15 83 -31 87 -35 7 -11 -2 -78 -11 -78 -4 0 -56 23 -115 50 -106 49
-107 51 -90 70 23 26 32 25 129 -7z m-34 -83 c63 -29 117 -54 119 -56 2 -1
-12 -36 -32 -76 -19 -40 -37 -83 -41 -96 -5 -15 -13 -21 -24 -18 -46 14 -190
46 -208 46 -19 0 -22 8 -27 68 -8 81 3 125 40 164 32 34 24 35 173 -32z
m-2181 -30 c50 -36 135 -96 187 -133 64 -45 102 -66 114 -62 11 3 20 -1 24
-10 8 -21 -4 -95 -15 -95 -11 0 -139 88 -297 205 -120 87 -122 90 -122 128 0
21 4 37 8 35 5 -1 50 -32 101 -68z m1114 6 c44 -85 28 -173 -36 -200 -82 -34
-656 -172 -739 -178 -42 -2 -211 98 -385 230 -99 75 -123 97 -123 117 0 18 5
25 19 25 10 0 21 -6 24 -13 3 -8 76 -63 164 -124 214 -150 283 -193 305 -193
24 0 345 72 483 109 116 31 217 71 247 98 35 31 18 106 -28 123 -31 12 -30 24
4 37 37 15 43 12 65 -31z m-63 -36 c37 -37 22 -76 -40 -104 -62 -28 -259 -83
-463 -130 -109 -25 -203 -46 -208 -46 -6 0 -7 9 -3 23 4 12 7 41 6 64 l0 43
51 14 c29 8 104 22 167 31 92 13 123 14 157 4 57 -15 74 -9 172 61 92 65 127
74 161 40z m990 -180 c0 -13 -29 -32 -40 -25 -5 3 -10 14 -10 24 0 14 6 17 25
13 14 -2 25 -8 25 -12z"/>
<path d="M1435 1410 c3 -5 1 -10 -5 -10 -7 0 -10 -13 -8 -32 2 -28 7 -33 28
-33 27 0 36 20 26 61 -4 16 -14 24 -27 24 -11 0 -17 -4 -14 -10z"/>
<path d="M1847 1413 c-11 -20 -15 -60 -8 -71 5 -8 19 -12 32 -10 41 5 35 88
-7 88 -7 0 -15 -3 -17 -7z"/>
<path d="M1551 1192 c-10 -19 -10 -23 1 -21 7 1 26 -3 41 -9 38 -16 100 -15
142 2 18 8 37 11 41 8 4 -4 4 1 1 11 -4 10 -7 21 -7 23 0 2 -9 -5 -19 -15 -39
-39 -175 -34 -183 7 -3 14 -6 13 -17 -6z"/>
</g>
</svg>
